<svg id="Layer_2" data-name="Layer 2" xmlns="http://www.w3.org/2000/svg" viewBox="0 0 360 360"><defs><style>.cls-1{fill:#fff;}.cls-2{fill:#ee3158;}.cls-3{fill:#f06185;}.cls-4{fill:#f493ad;}</style></defs><title>logo_white_shield</title><g id="Layer_5" data-name="Layer 5"><rect class="cls-1" width="360" height="360" rx="96.64"/><path class="cls-2" d="M108,144h72a0,0,0,0,1,0,0V288a0,0,0,0,1,0,0H144.93A36.93,36.93,0,0,1,108,251.07V144A0,0,0,0,1,108,144Z"/><path class="cls-3" d="M108,144h72a0,0,0,0,1,0,0v72a0,0,0,0,1,0,0H144.93A36.93,36.93,0,0,1,108,179.07V144A0,0,0,0,1,108,144Z"/><path class="cls-4" d="M-1008-72h72a0,0,0,0,1,0,0V0a0,0,0,0,1,0,0h-35.07A36.93,36.93,0,0,1-1008-36.93V-72A0,0,0,0,1-1008-72Z" transform="translate(252 -792) rotate(-90)"/><path class="cls-2" d="M-1080-144h144a0,0,0,0,1,0,0v72a0,0,0,0,1,0,0h-107.07A36.93,36.93,0,0,1-1080-108.93V-144A0,0,0,0,1-1080-144Z" transform="translate(-828 0) rotate(180)"/><path class="cls-4" d="M-1080-144h72a0,0,0,0,1,0,0v72a0,0,0,0,1,0,0h-35.07A36.93,36.93,0,0,1-1080-108.93V-144A0,0,0,0,1-1080-144Z" transform="translate(-900 0) rotate(180)"/></g></svg>