<svg id="Layer_2" data-name="Layer 2" xmlns="http://www.w3.org/2000/svg" viewBox="0 0 1440 216"><defs><style>.cls-1{fill:#ee3158;}.cls-2{fill:#f0567b;}.cls-3{fill:#ee7397;}</style></defs><title>pixelbitecsslogo</title><g id="Layer_4" data-name="Layer 4"><path class="cls-1" d="M0,72H72a0,0,0,0,1,0,0V216a0,0,0,0,1,0,0H36.93A36.93,36.93,0,0,1,0,179.07V72A0,0,0,0,1,0,72Z"/><path class="cls-2" d="M0,72H72a0,0,0,0,1,0,0v72a0,0,0,0,1,0,0H36.93A36.93,36.93,0,0,1,0,107.07V72A0,0,0,0,1,0,72Z"/><path class="cls-3" d="M-720-432h72a0,0,0,0,1,0,0v72a0,0,0,0,1,0,0h-35.07A36.93,36.93,0,0,1-720-396.93V-432A0,0,0,0,1-720-432Z" transform="translate(504 -576) rotate(-90)"/><path class="cls-1" d="M-792-504h144a0,0,0,0,1,0,0v72a0,0,0,0,1,0,0H-755.07A36.93,36.93,0,0,1-792-468.93V-504A0,0,0,0,1-792-504Z" transform="translate(-648 -432) rotate(180)"/><path class="cls-3" d="M-792-504h72a0,0,0,0,1,0,0v72a0,0,0,0,1,0,0h-35.07A36.93,36.93,0,0,1-792-468.93V-504A0,0,0,0,1-792-504Z" transform="translate(-720 -432) rotate(180)"/><path class="cls-3" d="M180,72h72a0,0,0,0,1,0,0V216a0,0,0,0,1,0,0H216.93A36.93,36.93,0,0,1,180,179.07V72A0,0,0,0,1,180,72Z"/><path class="cls-2" d="M180,72h72a0,0,0,0,1,0,0v72a0,0,0,0,1,0,0H216.93A36.93,36.93,0,0,1,180,107.07V72A0,0,0,0,1,180,72Z"/><path class="cls-2" d="M-504-360h72a0,0,0,0,1,0,0v72a0,0,0,0,1,0,0h-35.07A36.93,36.93,0,0,1-504-324.93V-360A0,0,0,0,1-504-360Z" transform="translate(648 -288) rotate(-90)"/><path class="cls-3" d="M360,144h72a0,0,0,0,1,0,0v72a0,0,0,0,1,0,0H396.93A36.93,36.93,0,0,1,360,179.07V144A0,0,0,0,1,360,144Z"/><path class="cls-1" d="M-432-432h72a0,0,0,0,1,0,0v72a0,0,0,0,1,0,0h-35.07A36.93,36.93,0,0,1-432-396.93V-432A0,0,0,0,1-432-432Z" transform="translate(0 504) rotate(90)"/><path class="cls-3" d="M-504-432h72a0,0,0,0,1,0,0v72a0,0,0,0,1,0,0h-35.07A36.93,36.93,0,0,1-504-396.93V-432A0,0,0,0,1-504-432Z" transform="translate(-144 -288) rotate(180)"/><path class="cls-2" d="M468,144h72a0,0,0,0,1,0,0v72a0,0,0,0,1,0,0H504.93A36.93,36.93,0,0,1,468,179.07V144A0,0,0,0,1,468,144Z"/><path class="cls-3" d="M-252-360h72a0,0,0,0,1,0,0v72a0,0,0,0,1,0,0h-35.07A36.93,36.93,0,0,1-252-324.93V-360A0,0,0,0,1-252-360Z" transform="translate(360 -144) rotate(180)"/><path class="cls-1" d="M-288-468h72a0,0,0,0,1,0,0v144a0,0,0,0,1,0,0h-35.07A36.93,36.93,0,0,1-288-360.93V-468A0,0,0,0,1-288-468Z" transform="translate(936 -144) rotate(-90)"/><path class="cls-3" d="M-324-432h72a0,0,0,0,1,0,0v72a0,0,0,0,1,0,0h-35.07A36.93,36.93,0,0,1-324-396.93V-432A0,0,0,0,1-324-432Z" transform="translate(216 -288) rotate(180)"/><path class="cls-1" d="M-144-360H0a0,0,0,0,1,0,0v72a0,0,0,0,1,0,0H-107.07A36.93,36.93,0,0,1-144-324.93V-360A0,0,0,0,1-144-360Z" transform="translate(648 -144) rotate(180)"/><path class="cls-2" d="M-144-432h72a0,0,0,0,1,0,0v72a0,0,0,0,1,0,0h-35.07A36.93,36.93,0,0,1-144-396.93V-432A0,0,0,0,1-144-432Z" transform="translate(288 216) rotate(90)"/><path class="cls-3" d="M-144-360h72a0,0,0,0,1,0,0v72a0,0,0,0,1,0,0h-35.07A36.93,36.93,0,0,1-144-324.93V-360A0,0,0,0,1-144-360Z" transform="translate(1008 72) rotate(-90)"/><path class="cls-1" d="M1152.93,0H1188a0,0,0,0,1,0,0V144a0,0,0,0,1,0,0h-72a0,0,0,0,1,0,0V36.93A36.93,36.93,0,0,1,1152.93,0Z"/><path class="cls-2" d="M1152.93,72H1188a0,0,0,0,1,0,0v72a0,0,0,0,1,0,0h-72a0,0,0,0,1,0,0V108.93A36.93,36.93,0,0,1,1152.93,72Z"/><path class="cls-3" d="M432.93-432H468a0,0,0,0,1,0,0v72a0,0,0,0,1,0,0H396a0,0,0,0,1,0,0v-35.07A36.93,36.93,0,0,1,432.93-432Z" transform="translate(828 -324) rotate(90)"/><path class="cls-3" d="M360.93-360H396a0,0,0,0,1,0,0v72a0,0,0,0,1,0,0H324a0,0,0,0,1,0,0v-35.07A36.93,36.93,0,0,1,360.93-360Z" transform="translate(1512 -144) rotate(180)"/><path class="cls-3" d="M1008,72h72a0,0,0,0,1,0,0V216a0,0,0,0,1,0,0h-35.07A36.93,36.93,0,0,1,1008,179.07V72a0,0,0,0,1,0,0Z"/><path class="cls-2" d="M1008,72h72a0,0,0,0,1,0,0v72a0,0,0,0,1,0,0h-35.07A36.93,36.93,0,0,1,1008,107.07V72A0,0,0,0,1,1008,72Z"/><path class="cls-1" d="M864.93,0H900a0,0,0,0,1,0,0V144a0,0,0,0,1,0,0H828a0,0,0,0,1,0,0V36.93A36.93,36.93,0,0,1,864.93,0Z"/><path class="cls-2" d="M864.93,72H900a0,0,0,0,1,0,0v72a0,0,0,0,1,0,0H828a0,0,0,0,1,0,0V108.93A36.93,36.93,0,0,1,864.93,72Z"/><path class="cls-3" d="M144.93-432H180a0,0,0,0,1,0,0v72a0,0,0,0,1,0,0H108a0,0,0,0,1,0,0v-35.07A36.93,36.93,0,0,1,144.93-432Z" transform="translate(540 -36) rotate(90)"/><path class="cls-1" d="M72.93-360H180a0,0,0,0,1,0,0v72a0,0,0,0,1,0,0H36a0,0,0,0,1,0,0v-35.07A36.93,36.93,0,0,1,72.93-360Z" transform="translate(1008 -144) rotate(180)"/><path class="cls-3" d="M72.93-360H108a0,0,0,0,1,0,0v72a0,0,0,0,1,0,0H36a0,0,0,0,1,0,0v-35.07A36.93,36.93,0,0,1,72.93-360Z" transform="translate(936 -144) rotate(180)"/><path class="cls-2" d="M1296,144h72a0,0,0,0,1,0,0v72a0,0,0,0,1,0,0h-35.07A36.93,36.93,0,0,1,1296,179.07V144A0,0,0,0,1,1296,144Z"/><path class="cls-3" d="M576-360h72a0,0,0,0,1,0,0v72a0,0,0,0,1,0,0H612.93A36.93,36.93,0,0,1,576-324.93V-360A0,0,0,0,1,576-360Z" transform="translate(2016 -144) rotate(180)"/><path class="cls-1" d="M540-468h72a0,0,0,0,1,0,0v144a0,0,0,0,1,0,0H576.93A36.93,36.93,0,0,1,540-360.93V-468A0,0,0,0,1,540-468Z" transform="translate(1764 684) rotate(-90)"/><path class="cls-3" d="M504-432h72a0,0,0,0,1,0,0v72a0,0,0,0,1,0,0H540.93A36.93,36.93,0,0,1,504-396.93V-432A0,0,0,0,1,504-432Z" transform="translate(1872 -288) rotate(180)"/></g></svg>